<svg xmlns="http://www.w3.org/2000/svg" viewBox="0 0 1555.41 341.39"><defs><style>.a{fill:#fff;}</style></defs><path class="a" d="M973.49,274.1V285H993v6.77H973.49v14.62h-7.72V267.16H994v6.94Z"/><path class="a" d="M998.69,286.75c0-12.32,8.23-20.49,20.65-20.49s20.61,8.17,20.61,20.49-8.23,20.49-20.61,20.49S998.69,299.07,998.69,286.75Zm33.42,0c0-8-5.15-13.44-12.77-13.44s-12.82,5.43-12.82,13.44,5.15,13.44,12.82,13.44S1032.11,294.76,1032.11,286.75Z"/><path class="a" d="M1061.28,293.19h-6.78v13.16h-7.72V267.16h18.64c8.51,0,14,5.26,14,13.1,0,6.27-3.53,10.8-9.58,12.37l11.59,13.72H1072Zm3.64-19.15h-10.47v12.49h10.47c4.31,0,6.83-2.3,6.83-6.22S1069.23,274,1064.92,274Z"/><path class="a" d="M1129.52,267.16v39.19h-7.72V279.86l-12.65,15.85h-1.57l-12.66-15.85v26.49h-7.72V267.16h6.94l14.22,17.91,14.17-17.91Z"/><path class="a" d="M1168.49,299.57v6.78h-29.78V267.16H1168v6.71h-21.67v9.35H1167v6.55h-20.66v9.8Z"/><path class="a" d="M1190.38,293.19h-6.77v13.16h-7.73V267.16h18.64c8.51,0,14,5.26,14,13.1a12.09,12.09,0,0,1-9.57,12.37l11.59,13.72h-9.47ZM1194,274h-10.47v12.49H1194c4.31,0,6.83-2.3,6.83-6.22S1198.33,274,1194,274Z"/><path class="a" d="M1216.3,267.16H1224v32.07h20.26v7.12h-28Z"/><path class="a" d="M1262.66,290.72v15.63h-7.78V290.78l-15.4-23.62h9.18l10.19,16.23,10.36-16.23h9.29Z"/><path class="a" d="M1292.84,286.75c0-12.32,8.23-20.49,20.65-20.49s20.61,8.17,20.61,20.49-8.23,20.49-20.61,20.49S1292.84,299.07,1292.84,286.75Zm33.42,0c0-8-5.15-13.44-12.77-13.44s-12.82,5.43-12.82,13.44,5.15,13.44,12.82,13.44S1326.26,294.76,1326.26,286.75Z"/><path class="a" d="M1368.92,274.1h-12.37v32.25h-7.78V274.1h-12.38v-6.94h32.53Z"/><path class="a" d="M1404.19,299.57v6.78h-29.78V267.16h29.28v6.71H1382v9.35h20.66v6.55H1382v9.8Z"/><path class="a" d="M1411.58,267.16h7.73v32.07h20.26v7.12h-28Z"/><path class="a" d="M1442,286.75c0-12.15,8.57-20.43,20.72-20.43a20,20,0,0,1,14.72,6.1l-5,4.76a12.87,12.87,0,0,0-9.52-3.87c-7.78,0-13.1,5.43-13.1,13.44s5.32,13.44,13.1,13.44a14.51,14.51,0,0,0,10.19-4.09l4.7,5.15a20.57,20.57,0,0,1-15,5.93C1450.38,307.18,1442,298.79,1442,286.75Z"/><path class="a" d="M1480.33,286.75c0-12.32,8.23-20.49,20.66-20.49s20.6,8.17,20.6,20.49-8.23,20.49-20.6,20.49S1480.33,299.07,1480.33,286.75Zm33.42,0c0-8-5.15-13.44-12.76-13.44s-12.82,5.43-12.82,13.44,5.15,13.44,12.82,13.44S1513.75,294.76,1513.75,286.75Z"/><path class="a" d="M170.7,159.58v22.23h67.76A68.67,68.67,0,1,1,170.7,102h79.79V79.79H170.7a90.91,90.91,0,1,0,90.2,102h17.81a108.58,108.58,0,1,1-108-119.69V39.9A130.94,130.94,0,0,0,39.9,170.7c0,72.12,58.67,130.79,130.8,130.79,68.38,0,124.66-52.74,130.32-119.68h17.73c-5.7,76.7-69.92,137.36-148,137.36-81.87,0-148.48-66.61-148.48-148.47S88.83,22.22,170.7,22.22V0C76.57,0,0,76.57,0,170.7S76.57,341.39,170.7,341.39c90.38,0,164.57-70.62,170.32-159.58,0,0,.33-6.44.33-22.23Zm0-17.67H295.92V119.69H170.7Z"/><path class="a" d="M448.94,233.42c-32.8,0-64.72-19.69-64.72-63.13s31.92-62.95,65.61-62.95,47.88,17.73,51.42,21.28l-26.59,22.16a33.87,33.87,0,0,0-24.83-10.64c-14.19,0-25.36,10.64-25.36,30.15s11.17,30.14,25.36,30.14S466.68,196,466.68,196v-8.86H448.06V157.52h57.63v53.55C495.93,219.94,481.75,233.42,448.94,233.42Z"/><path class="a" d="M586.37,233.59c-38.13,0-66.5-23.23-66.5-63.12s28.37-63.31,66.5-63.31,66.49,23.41,66.49,63.31S624.49,233.59,586.37,233.59Zm0-92.56c-16,0-26.25,11.7-26.25,28.55s10.29,28.55,26.25,28.55,26.06-11.7,26.06-28.55S602.32,141,586.37,141Z"/><path class="a" d="M783.93,230V111.89H748.34V156c0,8.62.86,21.7.87,21.83l.48,7.2-38-73.15H671.12V230h35.59V185.84c0-8.62-.86-21.71-.87-21.84l-.46-6.85L745.09,230Z"/><polygon class="a" points="889.23 184.33 889.23 156.29 845.35 156.29 845.35 140.1 891.86 140.1 891.86 111.89 808.89 111.89 808.89 229.96 893.61 229.96 893.61 201.39 845.35 201.39 845.35 184.33 889.23 184.33"/><polygon class="a" points="999.96 111.89 906.29 111.89 906.29 139.75 934.72 139.75 934.72 229.96 971.36 229.96 971.36 139.75 999.96 139.75 999.96 111.89"/><path class="a" d="M1100,191.63c0-21.78-14.69-29.73-30.56-35.07-2.72-.91-6.8-2.12-10.08-3.09-1.76-.53-3.3-1-4.28-1.29l-1-.29c-3.19-.94-8.51-2.51-8.51-6.77,0-6.42,8.23-6.42,11.33-6.42,6.41,0,19.09,3.35,28.33,10.74l13.62-25.34c-10.52-8.31-26.2-13.44-41.25-13.44-14.47,0-26.78,3.61-34.65,10.18-4.06,3.36-13.5,12.84-13.5,28.15,0,19,9.82,26.63,26.77,33.34,3.45,1.2,13,4.33,17.4,5.56,4.66,1.5,9.88,3.17,9.88,7.78,0,2-1,6.59-10.46,6.59-5.77,0-20.68-3.65-31.88-12.39l-16,27.15c13.83,10,28.85,15,44.69,15,14.62,0,26-3.28,34.88-10A38.54,38.54,0,0,0,1100,191.63Z"/><path class="a" d="M1169.07,111.89h-51.13V230h36.64V192.23h14.49c39.92,0,45.88-25.12,45.88-40.09C1215,117.12,1186.21,111.89,1169.07,111.89Zm-6.66,53.52h-8V138.7h8c10.31,0,15.55,4.52,15.55,13.44C1178,164,1169.08,165.41,1162.41,165.41Z"/><polygon class="a" points="1312.35 184.33 1312.35 156.29 1268.48 156.29 1268.48 140.1 1314.98 140.1 1314.98 111.89 1232.01 111.89 1232.01 229.96 1316.74 229.96 1316.74 201.39 1268.48 201.39 1268.48 184.33 1312.35 184.33"/><polygon class="a" points="1418.52 184.33 1418.52 156.29 1374.65 156.29 1374.65 140.1 1421.16 140.1 1421.16 111.89 1338.18 111.89 1338.18 229.96 1422.91 229.96 1422.91 201.39 1374.65 201.39 1374.65 184.33 1418.52 184.33"/><path class="a" d="M1488.48,111.89h-44.12V230h44.12c30.53,0,66.93-10.25,66.93-59S1519,111.89,1488.48,111.89Zm3,87.74h-10.63v-58.3h10.63c18.14,0,27,9.68,27,29.59C1518.42,189.7,1509.1,199.63,1491.46,199.63Z"/></svg>